<mxfile host="app.diagrams.net" modified="2023-05-07T12:45:27.401Z" agent="Mozilla/5.0 (Macintosh; Intel Mac OS X 10_15_7) AppleWebKit/537.36 (KHTML, like Gecko) Chrome/112.0.0.0 Safari/537.36" version="21.2.9" etag="VgEh_EQe_WTOiS11eVoF" type="github">
  <diagram name="ページ1" id="8gwAxpIwCEioRYELLnGF">
    <mxGraphModel>
      <root>
        <mxCell id="0" />
        <mxCell id="1" parent="0" />
      </root>
    </mxGraphModel>
  </diagram>
</mxfile>
